HIERARCHY
ROOT Hips
{
	OFFSET 0.000000 100.481300 0.000000
	CHANNELS 6 Xposition Yposition Zposition Xrotation Yrotation Zrotation
	JOINT Spine
	{
		OFFSET -0.279200 12.230698 -2.892100
		CHANNELS 3 Xrotation Yrotation Zrotation
		JOINT Spine1
		{
			OFFSET -0.325700 14.269203 -3.374200
			CHANNELS 3 Xrotation Yrotation Zrotation
			JOINT Spine2
			{
				OFFSET -0.372300 16.307602 -0.352600
				CHANNELS 3 Xrotation Yrotation Zrotation
				JOINT Neck
				{
					OFFSET -0.418800 17.814194 8.416900
					CHANNELS 3 Xrotation Yrotation Zrotation
					JOINT Head
					{
						OFFSET 0.000000 7.031097 3.806800
						CHANNELS 3 Xrotation Yrotation Zrotation
						JOINT HeadTop_End
						{
							OFFSET 0.000000 24.646606 12.978600
							CHANNELS 3 Xrotation Yrotation Zrotation
							End Site
							{
								OFFSET 0.000000 27.854965 0.000000
							}
						}
					}
				}
				JOINT LeftShoulder
				{
					OFFSET 16.952999 14.495407 -7.737500
					CHANNELS 3 Xrotation Yrotation Zrotation
					JOINT LeftArm
					{
						OFFSET 9.308998 -2.777710 0.208600
						CHANNELS 3 Xrotation Yrotation Zrotation
						JOINT LeftForeArm
						{
							OFFSET 29.972298 0.000000 0.000000
							CHANNELS 3 Xrotation Yrotation Zrotation
							JOINT LeftHand
							{
								OFFSET 26.026505 0.000000 0.000000
								CHANNELS 3 Xrotation Yrotation Zrotation
								JOINT LeftHandThumb1
								{
									OFFSET 12.240501 -7.147949 9.207150
									CHANNELS 3 Xrotation Yrotation Zrotation
									JOINT LeftHandThumb2
									{
										OFFSET 4.138618 -2.389435 2.389433
										CHANNELS 3 Xrotation Yrotation Zrotation
										JOINT LeftHandThumb3
										{
											OFFSET 2.726913 -1.574387 1.574386
											CHANNELS 3 Xrotation Yrotation Zrotation
											JOINT LeftHandThumb4
											{
												OFFSET 3.941010 -2.275345 2.275342
												CHANNELS 3 Xrotation Yrotation Zrotation
												End Site
												{
													OFFSET -0.005798 5.087799 0.009903
												}
											}
										}
									}
								}
								JOINT LeftHandIndex1
								{
									OFFSET 24.424698 -1.985611 5.953459
									CHANNELS 3 Xrotation Yrotation Zrotation
									JOINT LeftHandIndex2
									{
										OFFSET 6.426697 0.000000 0.000000
										CHANNELS 3 Xrotation Yrotation Zrotation
										JOINT LeftHandIndex3
										{
											OFFSET 5.337898 0.000000 0.000000
											CHANNELS 3 Xrotation Yrotation Zrotation
											JOINT LeftHandIndex4
											{
												OFFSET 4.409401 0.000000 0.000000
												CHANNELS 3 Xrotation Yrotation Zrotation
												End Site
												{
													OFFSET 0.000000 4.409363 0.014373
												}
											}
										}
									}
								}
								JOINT LeftHandMiddle1
								{
									OFFSET 23.810104 0.000000 0.000000
									CHANNELS 3 Xrotation Yrotation Zrotation
									JOINT LeftHandMiddle2
									{
										OFFSET 7.176498 0.000000 0.000000
										CHANNELS 3 Xrotation Yrotation Zrotation
										JOINT LeftHandMiddle3
										{
											OFFSET 6.774902 0.000000 0.000000
											CHANNELS 3 Xrotation Yrotation Zrotation
											JOINT LeftHandMiddle4
											{
												OFFSET 5.403328 0.000000 0.000000
												CHANNELS 3 Xrotation Yrotation Zrotation
												End Site
												{
													OFFSET -0.027702 5.403244 0.017414
												}
											}
										}
									}
								}
								JOINT LeftHandRing1
								{
									OFFSET 22.908401 -0.839279 -6.020567
									CHANNELS 3 Xrotation Yrotation Zrotation
									JOINT LeftHandRing2
									{
										OFFSET 6.337502 0.000000 0.000000
										CHANNELS 3 Xrotation Yrotation Zrotation
										JOINT LeftHandRing3
										{
											OFFSET 5.779297 0.000000 0.000000
											CHANNELS 3 Xrotation Yrotation Zrotation
											JOINT LeftHandRing4
											{
												OFFSET 4.965698 0.000000 0.000000
												CHANNELS 3 Xrotation Yrotation Zrotation
												End Site
												{
													OFFSET 0.000000 4.965668 0.016186
												}
											}
										}
									}
								}
								JOINT LeftHandPinky1
								{
									OFFSET 20.037003 -1.530319 -10.950146
									CHANNELS 3 Xrotation Yrotation Zrotation
									JOINT LeftHandPinky2
									{
										OFFSET 5.254700 0.000000 0.000000
										CHANNELS 3 Xrotation Yrotation Zrotation
										JOINT LeftHandPinky3
										{
											OFFSET 4.810204 0.000000 0.000000
											CHANNELS 3 Xrotation Yrotation Zrotation
											JOINT LeftHandPinky4
											{
												OFFSET 3.647202 0.000000 0.000000
												CHANNELS 3 Xrotation Yrotation Zrotation
												End Site
												{
													OFFSET 0.000000 3.647186 0.011889
												}
											}
										}
									}
								}
							}
						}
					}
				}
				JOINT RightShoulder
				{
					OFFSET -15.141001 14.495407 -7.737500
					CHANNELS 3 Xrotation Yrotation Zrotation
					JOINT RightArm
					{
						OFFSET -9.308998 -2.777710 0.208500
						CHANNELS 3 Xrotation Yrotation Zrotation
						JOINT RightForeArm
						{
							OFFSET -29.972300 0.000000 0.000000
							CHANNELS 3 Xrotation Yrotation Zrotation
							JOINT RightHand
							{
								OFFSET -26.026505 0.000000 0.000000
								CHANNELS 3 Xrotation Yrotation Zrotation
								JOINT RightHandThumb1
								{
									OFFSET -12.240601 -7.148026 9.207092
									CHANNELS 3 Xrotation Yrotation Zrotation
									JOINT RightHandThumb2
									{
										OFFSET -4.138618 -2.389435 2.389433
										CHANNELS 3 Xrotation Yrotation Zrotation
										JOINT RightHandThumb3
										{
											OFFSET -2.726974 -1.574417 1.574421
											CHANNELS 3 Xrotation Yrotation Zrotation
											JOINT RightHandThumb4
											{
												OFFSET -3.941010 -2.275345 2.275343
												CHANNELS 3 Xrotation Yrotation Zrotation
												End Site
												{
													OFFSET 0.005814 5.087799 0.009927
												}
											}
										}
									}
								}
								JOINT RightHandIndex1
								{
									OFFSET -24.424698 -1.985657 5.953444
									CHANNELS 3 Xrotation Yrotation Zrotation
									JOINT RightHandIndex2
									{
										OFFSET -6.426697 0.000000 0.000000
										CHANNELS 3 Xrotation Yrotation Zrotation
										JOINT RightHandIndex3
										{
											OFFSET -5.337898 0.000000 0.000000
											CHANNELS 3 Xrotation Yrotation Zrotation
											JOINT RightHandIndex4
											{
												OFFSET -4.409401 0.000000 0.000000
												CHANNELS 3 Xrotation Yrotation Zrotation
												End Site
												{
													OFFSET 0.000000 4.409363 0.014408
												}
											}
										}
									}
								}
								JOINT RightHandMiddle1
								{
									OFFSET -23.810097 0.000000 0.000000
									CHANNELS 3 Xrotation Yrotation Zrotation
									JOINT RightHandMiddle2
									{
										OFFSET -7.176498 0.000000 0.000000
										CHANNELS 3 Xrotation Yrotation Zrotation
										JOINT RightHandMiddle3
										{
											OFFSET -6.774902 0.000000 0.000000
											CHANNELS 3 Xrotation Yrotation Zrotation
											JOINT RightHandMiddle4
											{
												OFFSET -5.403328 0.000000 0.000000
												CHANNELS 3 Xrotation Yrotation Zrotation
												End Site
												{
													OFFSET 0.027702 5.403244 0.017457
												}
											}
										}
									}
								}
								JOINT RightHandRing1
								{
									OFFSET -22.908302 -0.839325 -6.020576
									CHANNELS 3 Xrotation Yrotation Zrotation
									JOINT RightHandRing2
									{
										OFFSET -6.337502 0.000000 0.000000
										CHANNELS 3 Xrotation Yrotation Zrotation
										JOINT RightHandRing3
										{
											OFFSET -5.779297 0.000000 0.000000
											CHANNELS 3 Xrotation Yrotation Zrotation
											JOINT RightHandRing4
											{
												OFFSET -4.965698 0.000000 0.000000
												CHANNELS 3 Xrotation Yrotation Zrotation
												End Site
												{
													OFFSET 0.000000 4.965668 0.016226
												}
											}
										}
									}
								}
								JOINT RightHandPinky1
								{
									OFFSET -20.037003 -1.530334 -10.950259
									CHANNELS 3 Xrotation Yrotation Zrotation
									JOINT RightHandPinky2
									{
										OFFSET -5.254700 0.000000 0.000000
										CHANNELS 3 Xrotation Yrotation Zrotation
										JOINT RightHandPinky3
										{
											OFFSET -4.810204 0.000000 0.000000
											CHANNELS 3 Xrotation Yrotation Zrotation
											JOINT RightHandPinky4
											{
												OFFSET -3.647202 0.000000 0.000000
												CHANNELS 3 Xrotation Yrotation Zrotation
												End Site
												{
													OFFSET 0.000000 3.647186 0.011917
												}
											}
										}
									}
								}
							}
						}
					}
				}
			}
		}
	}
	JOINT LeftUpLeg
	{
		OFFSET 15.427100 -6.655098 0.678600
		CHANNELS 3 Xrotation Yrotation Zrotation
		JOINT LeftLeg
		{
			OFFSET 4.081073 -39.591068 13.024000
			CHANNELS 3 Xrotation Yrotation Zrotation
			JOINT LeftFoot
			{
				OFFSET -4.081074 -37.707932 -15.979700
				CHANNELS 3 Xrotation Yrotation Zrotation
				JOINT LeftToeBase
				{
					OFFSET 5.346399 -15.068900 20.645000
					CHANNELS 3 Xrotation Yrotation Zrotation
					JOINT LeftToe_End
					{
						OFFSET 2.754700 0.931300 11.300900
						CHANNELS 3 Xrotation Yrotation Zrotation
						End Site
						{
							OFFSET 0.000000 11.669021 0.000000
						}
					}
				}
			}
		}
	}
	JOINT RightUpLeg
	{
		OFFSET -15.569500 -6.655098 0.678600
		CHANNELS 3 Xrotation Yrotation Zrotation
		JOINT RightLeg
		{
			OFFSET -4.081825 -39.591045 13.023800
			CHANNELS 3 Xrotation Yrotation Zrotation
			JOINT RightFoot
			{
				OFFSET 4.081824 -37.707954 -15.979600
				CHANNELS 3 Xrotation Yrotation Zrotation
				JOINT RightToeBase
				{
					OFFSET -5.346400 -15.068900 20.645000
					CHANNELS 3 Xrotation Yrotation Zrotation
					JOINT RightToe_End
					{
						OFFSET -2.754700 0.931300 11.300900
						CHANNELS 3 Xrotation Yrotation Zrotation
						End Site
						{
							OFFSET 0.000000 11.669021 0.000000
						}
					}
				}
			}
		}
	}
}
MOTION
Frames: 4
Frame Time: 0.033333
67.239525 82.357529 -40.634010 -353.074116 -394.159753 1.869748 13.227289 0.558673 8.528470 1.799524 0.177283 -0.299820 1.801046 0.158839 -0.299831 0.955342 1.341367 1.507878 -11.635973 12.772459 -12.290694 -0.000000 -0.000002 0.000001 0.585890 -2.254925 -9.590168 19.297532 -19.794435 -60.574243 -0.000009 -2.194632 -0.000001 3.257932 -5.684746 0.445004 6.116371 15.902209 -5.628069 1.813661 7.335387 -0.615646 -1.368121 5.222750 2.719806 -0.000000 0.000003 0.000000 -7.059410 -11.965580 -28.721243 0.010779 0.386012 -3.200365 0.001464 0.142466 -1.180582 0.000002 0.000001 -0.000002 -1.035285 -0.499025 -26.387866 0.090343 1.114050 -9.273156 0.009344 0.359229 -2.978050 0.000003 0.000002 -0.000004 5.287024 10.697425 -30.654497 0.174401 1.542886 -12.896644 0.017766 0.495240 -4.107465 -0.000005 -0.000000 -0.000002 20.370817 23.981848 -44.040609 0.139431 -2.647838 -12.249525 0.007243 0.316247 -2.621547 -0.000005 0.000000 -0.000001 0.520214 -0.651021 7.945761 -4.161256 53.146067 48.694970 -0.000004 8.970435 0.000013 -18.088815 13.422590 1.627064 -1.849242 -3.581789 -6.586156 4.637207 -8.634126 -0.225411 10.168880 -43.930120 3.822104 -0.000000 0.000003 -0.000002 0.125880 -1.319708 10.896549 0.125876 -1.319707 10.896542 0.125881 -1.319721 10.896541 0.000001 0.000001 -0.000000 0.189722 -1.616315 13.387912 0.203115 -1.671613 13.855130 0.138981 -1.385980 11.451219 -0.000000 0.000001 0.000000 0.287569 -1.982713 16.503159 0.325069 -2.105102 17.554851 0.156250 -1.468640 12.144595 0.000001 -0.000001 0.000001 0.457771 -2.485583 20.866856 0.457757 -2.485596 20.866839 0.125877 -1.319702 10.896552 0.000002 0.000000 0.000001 -27.662000 8.250829 -8.382639 114.052486 13.547728 11.319104 19.686181 -2.417945 -1.741845 -1.433260 -0.000014 -0.000005 0.000002 0.000001 0.000001 -29.730697 -13.102046 2.862756 55.258925 1.165587 -2.485691 -15.645472 3.035985 -5.000563 -18.168530 -0.000011 -0.000012 -0.000000 -0.000003 -0.000000 
61.358665 83.685715 -36.567520 -355.579621 -391.465981 2.634078 12.832459 2.278585 6.266849 2.091466 0.331129 -0.383603 2.094767 0.314021 -0.382478 1.795300 0.897096 1.160586 -10.917572 9.712317 -10.694107 -0.000001 0.000001 -0.000000 0.584755 -1.925025 -9.617723 24.445023 -17.348189 -57.183553 -0.000009 -2.149425 -0.000006 -0.681665 -7.846434 2.101323 6.784550 15.018474 -7.641611 2.505981 9.326254 -0.171359 -0.794652 6.161493 2.562990 0.000001 -0.000001 -0.000002 -6.936503 -8.478485 -34.461241 0.008995 0.352483 -2.922132 0.000457 0.079211 -0.656394 0.000003 -0.000002 0.000002 -0.370138 1.133039 -29.261739 0.077298 1.030985 -8.575881 0.005052 0.264369 -2.191138 -0.000000 0.000001 0.000000 5.786323 11.375991 -31.121784 0.111000 1.233843 -10.280893 0.007571 0.323674 -2.682986 0.000001 0.000002 -0.000000 19.778001 24.688240 -42.020799 0.040157 -3.218963 -7.450060 0.001400 0.139794 -1.158492 -0.000001 0.000000 -0.000002 0.485805 -0.121460 6.600152 -4.424663 57.795681 45.387427 0.000007 8.679923 0.000003 -17.861588 16.159548 1.296533 -1.849239 -3.581790 -6.586154 4.637207 -8.634122 -0.225410 10.168884 -43.930124 3.822101 0.000000 -0.000002 0.000004 0.125880 -1.319707 10.896550 0.125878 -1.319708 10.896541 0.125881 -1.319723 10.896535 0.000001 0.000000 0.000002 0.189723 -1.616314 13.387909 0.203118 -1.671609 13.855128 0.138982 -1.385978 11.451220 -0.000002 -0.000001 0.000000 0.287569 -1.982710 16.503158 0.325070 -2.105098 17.554858 0.156252 -1.468638 12.144595 -0.000003 0.000000 -0.000003 0.457770 -2.485581 20.866855 0.457760 -2.485594 20.866839 0.125874 -1.319699 10.896553 0.000003 0.000002 0.000001 -32.353250 4.186827 -6.356666 100.711426 6.560048 6.718245 13.826338 -2.125055 -0.508301 -0.936919 -0.000000 -0.000000 -0.000000 -0.000000 0.000001 -25.145970 -11.889635 -0.057712 58.174094 2.496940 -2.433094 -12.304044 8.454833 -3.385332 -22.828514 0.316765 -3.444886 -0.000000 0.000002 -0.000000 
56.170551 86.251114 -32.705982 -357.295091 -388.370294 3.323338 12.177734 3.368111 4.852510 2.413810 0.429528 -0.394187 2.417607 0.413991 -0.390065 2.259603 0.554804 0.646190 -9.761104 7.092020 -9.814756 -0.000000 0.000000 0.000000 0.577073 -1.809997 -8.888728 29.368048 -15.367014 -53.899318 0.000010 -2.233126 -0.000012 -4.354147 -9.282791 5.138472 7.222707 14.421659 -9.076623 3.374533 11.899005 0.364328 -0.183120 7.163159 2.404695 0.000001 -0.000001 -0.000002 -5.425597 -4.946644 -37.600854 0.011849 0.404534 -3.354018 0.000065 0.029049 -0.240908 -0.000003 -0.000003 0.000002 0.311223 2.429502 -30.941170 0.112641 1.242881 -10.356849 0.011778 0.403389 -3.344622 -0.000001 0.000003 -0.000002 5.539692 10.916338 -31.339319 0.178720 1.561680 -13.056587 0.031331 0.657480 -5.456712 0.000001 -0.000003 0.000002 17.446169 23.132683 -40.161512 0.134050 -2.672812 -12.038322 0.029877 0.642114 -5.328646 0.000001 -0.000000 -0.000001 0.481415 0.208312 5.807055 -6.630677 61.480575 42.235134 0.000004 7.871609 -0.000009 -15.115793 18.271840 0.070180 -1.849241 -3.581788 -6.586155 4.637206 -8.634126 -0.225411 10.168881 -43.930124 3.822101 -0.000001 -0.000002 -0.000006 0.125885 -1.319707 10.896549 0.125875 -1.319710 10.896538 0.125886 -1.319723 10.896535 -0.000002 -0.000002 0.000000 0.189723 -1.616314 13.387910 0.203114 -1.671609 13.855130 0.138984 -1.385976 11.451223 0.000002 0.000000 -0.000000 0.287572 -1.982710 16.503156 0.325068 -2.105099 17.554853 0.156252 -1.468642 12.144591 0.000001 -0.000001 0.000001 0.457772 -2.485582 20.866855 0.457756 -2.485592 20.866839 0.125875 -1.319698 10.896551 0.000003 -0.000002 0.000001 -33.442467 3.481807 -6.877631 82.562862 3.073338 4.774471 8.419638 -1.817700 0.143070 -2.103419 0.000001 -0.000002 0.000001 0.000001 -0.000000 -19.447388 -8.747032 -2.255473 53.796202 4.349469 -2.876977 -11.693700 8.529859 -2.281112 -23.385649 0.856762 -3.994157 -0.000000 -0.000000 0.000000 
51.564816 88.783249 -29.139086 -358.215254 -384.070498 3.669488 10.912794 3.904771 4.368714 2.848854 0.474202 -0.170664 2.851292 0.460085 -0.162087 2.145954 0.161638 -0.059868 -8.879877 4.169706 -9.807708 -0.000000 0.000000 0.000000 0.544773 -1.648355 -6.967883 31.991353 -12.572960 -51.202581 0.000001 -2.289689 -0.000003 -6.045014 -9.355326 6.925240 7.307017 14.539736 -9.175160 3.862835 13.412685 0.676856 0.222255 7.821659 2.299113 -0.000000 0.000001 0.000002 -3.315965 -2.336621 -36.403399 0.016137 0.472229 -3.916112 -0.000001 0.000955 -0.007964 -0.000002 -0.000003 0.000001 0.837016 3.300364 -30.042365 0.189902 1.609102 -13.460634 0.037092 0.715212 -5.937432 0.000003 0.000001 0.000000 4.822403 10.040613 -30.227409 0.400941 2.319454 -19.611071 0.136467 1.366857 -11.403546 0.000002 0.000002 0.000000 14.536748 20.867404 -37.883736 0.569336 -1.326307 -23.769673 0.199679 1.649390 -13.804335 -0.000001 -0.000000 -0.000000 0.454951 0.022567 4.997763 -10.712063 63.557424 38.881637 -0.000001 8.631104 -0.000000 -12.072627 19.327035 -1.351901 -1.849239 -3.581786 -6.586153 4.637207 -8.634131 -0.225412 10.168883 -43.930120 3.822100 -0.000000 0.000001 0.000003 0.125881 -1.319707 10.896550 0.125872 -1.319710 10.896541 0.125883 -1.319724 10.896541 -0.000003 -0.000003 -0.000001 0.189721 -1.616312 13.387911 0.203115 -1.671609 13.855129 0.138983 -1.385981 11.451225 0.000000 0.000000 0.000000 0.287572 -1.982711 16.503156 0.325070 -2.105100 17.554850 0.156249 -1.468644 12.144590 -0.000002 -0.000002 0.000001 0.457769 -2.485581 20.866855 0.457753 -2.485593 20.866839 0.125872 -1.319699 10.896553 -0.000001 -0.000001 0.000001 -32.083936 3.799942 -8.507030 59.858747 2.096200 4.226174 7.582827 -1.636375 2.370264 -13.501238 -0.109289 0.757566 -0.000000 -0.000002 0.000000 -13.415833 -2.620376 -4.997961 44.589620 2.464384 -1.017709 -14.259640 -0.497949 1.230208 -19.106787 0.004983 -0.027985 -0.000000 0.000001 0.000000 
